PathFileType	4	(X/Y/Z)	1_2_rein_122_p1_0-303_filt_butterworth.trc
DataRate	CameraRate	NumFrames	NumMarkers	Units	OrigDataRate	OrigDataStartFrame	OrigNumFrames
60.0	60.0	5	27	m	60.0	75	303
Frame#	Time	RHip			RKnee			RAnkle			RBigToe			RSmallToe			RHeel			LHip			LKnee			LAnkle			LBigToe			LSmallToe			LHeel			Neck			Head			Nose			RShoulder			RElbow			RWrist			RThumb			RIndex			RPinky			LShoulder			LElbow			LWrist			LThumb			LIndex			LPinky			
		X1	Y1	Z1	X2	Y2	Z2	X3	Y3	Z3	X4	Y4	Z4	X5	Y5	Z5	X6	Y6	Z6	X7	Y7	Z7	X8	Y8	Z8	X9	Y9	Z9	X10	Y10	Z10	X11	Y11	Z11	X12	Y12	Z12	X13	Y13	Z13	X14	Y14	Z14	X15	Y15	Z15	X16	Y16	Z16	X17	Y17	Z17	X18	Y18	Z18	X19	Y19	Z19	X20	Y20	Z20	X21	Y21	Z21	X22	Y22	Z22	X23	Y23	Z23	X24	Y24	Z24	X25	Y25	Z25	X26	Y26	Z26	X27	Y27	Z27	
75	1.25	0.3948194096374261	0.21588805365677946	1.111284843169762	0.39459730911058866	0.2676342724867402	1.5327380623691478	0.3735397048697391	0.3798185129950505	1.956047416152254	0.34581650440076006	0.20144497876832407	2.0021557015129607	0.40257999774329883	0.24157464717207994	2.018182578667693	0.3489964354405408	0.4633443009238605	2.041405563391029	0.20907107502012673	0.31849363565759964	1.0982635647065777	0.19589269785191188	0.3227209312073438	1.5168838132644968	0.20201426930715422	0.4005697188992513	1.9484619296766907	0.16223802226858147	0.21172529432991263	1.9986038557458676	0.12559706226945877	0.2267156012023651	1.9687464277184208	0.21925202089288578	0.4450228314422604	1.997178007763147	0.27447541564546907	0.12166882367684778	0.4998121262719683	0.1879278307709574	0.031459936571588874	0.2531295733190375	0.15090226303378215	0.004388135848035197	0.41425889365777735	0.43370064674935055	0.06421050930034683	0.591640143316125	0.4103893003679779	-0.04294025148110369	0.8676030543593656	0.17123192694647185	-0.12113149664549944	0.9053023041614923	0.03272451999936167	-0.12912317428959022	0.8636012425594372	0.01138245694193011	-0.1636438500155427	0.9125329355679194	0.0423707243042657	-0.15292535026298265	0.9750047394180142	0.16751803204004767	0.27597907786264697	0.557181657757652	0.12874813997887097	0.37918585356852696	0.8523259846865221	0.10463379270254454	0.29502697287324664	1.0955704152757333	0.0924799892811893	0.27420763584591445	1.2124858144829787	0.04862163288332458	0.2708472104302746	1.2469675599847436	0.07459159514965619	0.3221729116613017	1.2453961501177986
76	1.2666666666666666	0.3963340312186077	0.21953655165183303	1.1130662803500573	0.39456478918233323	0.2675909331994248	1.5324447914226709	0.37350119362661577	0.38034036661600956	1.9554646051346065	0.3454794506088837	0.20137308981518173	2.0022625919693664	0.40261266672857127	0.24156453845524012	2.0185344156011653	0.3485751383278803	0.46331316346729695	2.038947098710736	0.21205665012212904	0.32003837945779	1.0985574500848343	0.1957162510182972	0.32284578294864413	1.5154225214461654	0.202781213356847	0.40362199431550416	1.9496325969750563	0.16276906160792082	0.2129363136158764	1.9994362239774572	0.12550862532659565	0.22674921643164203	1.968381129478655	0.22019060431421925	0.4491398824498278	1.997251746768115	0.2741292097942892	0.12134938513650792	0.5052760224577079	0.18624595705059355	0.0279719403241166	0.25667083912901256	0.14785670652808083	0.0032961122917704953	0.42125302165813905	0.4322445070341504	0.06369961551160108	0.5931631185876781	0.4023224992111274	-0.050483102687011026	0.8692593314874217	0.16236708928118776	-0.13566231348958055	0.9068246126907589	0.022372522521416943	-0.12222561023613901	0.8700059976401111	0.0022295850504521196	-0.1747757496390442	0.9124725873449622	0.032434181438483624	-0.14918289424890405	0.9793051648538535	0.17126035425021185	0.27583418733173565	0.5586298578745295	0.1333109086463024	0.37841213278886127	0.8533446650371916	0.10402018433369825	0.3017690561346576	1.0975280214399423	0.09203790184755188	0.2973379171977075	1.217731832457754	0.04980813717573445	0.28311971297801625	1.2496389072708638	0.07773460174576355	0.3333770775840714	1.2485557076481917
77	1.2833333333333334	0.3975573858744579	0.2219154565169587	1.1155716087427558	0.39457288261726864	0.2676102889430435	1.5326153890971044	0.3734298154419245	0.3802780566890285	1.955140971786953	0.3452529955649904	0.20128143237049353	2.0021605688778874	0.40329463541501254	0.2431269186068441	2.0199873312589025	0.3483758231934381	0.4633905656601049	2.037181627156247	0.2144074183210495	0.32066211146963103	1.100304950129677	0.19558666599109745	0.32301809291406125	1.5141269559766124	0.20386068768157978	0.40761192320089246	1.951852405027905	0.16375743358303957	0.21573238289349678	2.001779360490338	0.12543726865385324	0.2264560643246773	1.968261053473429	0.22192852712433886	0.45318686364059985	1.99962094948038	0.2737934711094433	0.12379144626936842	0.5105744879731664	0.1840304704328182	0.023425010070317217	0.2595718414122661	0.14532593471212715	0.0006631545303119131	0.4282207589860734	0.43125749459966395	0.06274304472762625	0.5946209841400031	0.3976870936362387	-0.05307761270957581	0.8717489661819898	0.15107651053462845	-0.1443510180045946	0.9091095568636918	0.015074460860981844	-0.1185173373208058	0.8762824953913868	-0.007943157314025952	-0.1871379269814064	0.9139760750557184	0.02803417749257244	-0.16203448412660423	0.9804562554258871	0.17419666556355914	0.2772273693124498	0.5599303492919169	0.13781791473638194	0.3792500533274208	0.855141353642616	0.10341074815356582	0.3109433299874254	1.1009797744554368	0.09054292635883346	0.31691488683193625	1.2223475776466346	0.0536049390421419	0.29683653709914015	1.2552288595459848	0.08025138274120529	0.3439934023654333	1.2538701356530495
78	1.3	0.39809649932081187	0.22251136127094429	1.117413322817511	0.3945921193131744	0.2677071309634952	1.5329037815697217	0.37338596157692866	0.3797570209961489	1.9552604214498768	0.3451439320812352	0.2011712833806719	2.0018421580686234	0.4047265307163634	0.24701239382649426	2.0221736283003873	0.3487279582961907	0.4636015602309333	2.0372972045002014	0.21578843385256058	0.3217386455676415	1.103366666411504	0.19549469447705034	0.3236477517230263	1.5124896757321904	0.20510778767648963	0.41229935923464267	1.9545772595694244	0.1645347581755007	0.21948467209834832	2.0050608920456843	0.12528750981477518	0.22669939378274762	1.968402845858404	0.22428339136228784	0.4558432060719471	2.002438425346886	0.27356599310777574	0.12753409893144776	0.5155191130026978	0.18079156880950067	0.018958890012180825	0.2626182337597269	0.14378541343276355	-0.0031509496114853425	0.4348230528008429	0.42995368300191034	0.060595144189201734	0.5962184131620656	0.39402273168167357	-0.05291053495911791	0.8742991763920038	0.13744602510250656	-0.14359156694943864	0.9134808191250768	0.010005956233723107	-0.11843105728315588	0.8847305997550973	-0.01851872905252225	-0.19827277146838537	0.9176907057252852	0.027047196309199842	-0.19132694568172037	0.9804394124015646	0.17604248245081813	0.28118859838862853	0.5608366538114274	0.14211050257126373	0.38219912971870046	0.8573388379834372	0.10340934109865875	0.31883134688837406	1.1037569149276132	0.08930850738290542	0.3304624294791027	1.2247926595183747	0.06046534485703148	0.31539917290859654	1.2632282699659456	0.0823838220674777	0.3542570820502119	1.2596550259033243
79	1.3166666666666669	0.3981039674977024	0.222240164745656	1.1176650699593393	0.39456600900975114	0.2677881767532559	1.5330004690648495	0.37340660362265915	0.37915968316640664	1.9557781608283138	0.345000395454253	0.2011150527833911	2.0015146805413577	0.4066577360697742	0.25145225586535624	2.023583234048201	0.3497858349137807	0.46394318200483387	2.0399932873267477	0.2168115198940183	0.32361885540902147	1.106337248098178	0.19565895551837456	0.32567200634483945	1.5109784667590334	0.20639410822084292	0.4170650185665349	1.9575027525657172	0.16413196618530362	0.22274359645576747	2.0078165408650683	0.12486804145813896	0.22965184462481156	1.969810258464558	0.22647044710713388	0.45731111262077995	2.0045411657078955	0.27335288255347595	0.13066171091692402	0.519778058661119	0.17621656258813465	0.015185586516951765	0.2666222878725152	0.14328048690355358	-0.006246434006699358	0.440480794872752	0.42764371526177924	0.057088562408767696	0.5975868293954606	0.3883855760595899	-0.05120204046453872	0.8761739672370886	0.12327577716174799	-0.13758244251632643	0.9192950249663066	0.0054013177982778545	-0.12336390275946357	0.8958260115112971	-0.02709262346396226	-0.20692349494462917	0.9238559440744409	0.022738739614498852	-0.21865034944834574	0.9834055937553093	0.17670757847892438	0.2866530532263445	0.5614179412999919	0.146313894133734	0.385906120258946	0.8592136575635376	0.10452819409620753	0.324244922206435	1.1051544512904625	0.09002297623829923	0.3368851217968361	1.224871000180095	0.068724537784776	0.3374252770436661	1.2701652796209015	0.08540632175400587	0.36242828657688675	1.2636180747313932
